<svg width="1405" height="653" viewBox="0 0 1405 653" fill="none" xmlns="http://www.w3.org/2000/svg">
<path d="M1279.5 288C1272.5 275.5 1240 289.5 1240 310.5C1240 327.5 1253 338 1276.5 357.5C1282 375.5 1240.6 411.698 1223.5 401.5C1195 384.5 1327.5 344 1359.5 315M210.5 564.5C667.5 449.5 1020.5 443.5 1151 505.5" stroke="#0FF096" stroke-width="16" stroke-linecap="round" stroke-linejoin="round"/>
<path d="M45 205.5C315.241 -62.1378 65.0985 542.39 113.5 497.5C161.901 452.61 399.688 62.1126 469.5 49M310.5 315.5L275.5 388.5C276.535 428.637 359 342.5 388 318C407 301 426.5 308.5 425 329M326.5 275.5L330.5 269.5" stroke="#0FF096" stroke-width="16" stroke-linecap="round" stroke-linejoin="round"/>
<path d="M364.5 340C310.5 418 405.87 408 481.872 333M577 139C441.516 399.424 436 451.5 441.5 464.5M381 221.5C501.335 203.998 571.074 197.724 707 204.5M539.5 333C544.5 355.5 607 359 646 298.5M638.5 316.5C688 333 621.5 366.5 643 390.5C651.511 400 693.867 370.407 736.5 327M682 408.5C746 373.5 848.791 349.953 959.5 335M715 457C813.903 282.687 992 36 996.5 64.5C1015 43.5 844.5 464 837.5 604.5M970.455 289.5C1022.5 239 1087 109 1075 83C1052.34 75.2451 928.5 351.5 959.5 379C988.637 390.726 1008.23 369.556 1047.5 295C1035.1 348.54 1032.1 376.727 1039 382C1047.5 388.5 1085.5 344 1098 297.5M1124.56 331.5C1147.5 343.5 1195.5 304.5 1181 285C1155.5 274 1098 341 1130.5 374.5C1160.5 382 1184.5 367 1235.5 323.5M1098 323.5L1118.5 327M565 311.5C538.5 300 486.171 380.38 518.5 395C536.5 400 553 386.5 565 363.5C577 340.5 582.5 317.5 565 311.5Z" stroke="#0FF096" stroke-width="16" stroke-linecap="round" stroke-linejoin="round"/>
</svg>
